# xmcd
#
# Track frame offsets:
#	150
#	29663
#	61619
#	121566
#	151141
#	181406
#	225146
#
# Disc length: 3550 seconds
#
# Revision: 1
# Processed by: cddbd v1.5.2PL0 Copyright (c) Steve Scherf et al.
# Submitted via: audiograbber 1.83.01
#
DISCID=420ddc07
DTITLE=Grateful Dead - 82-12-30 Oakland Auditorium Arena, Oakland CA
DYEAR=1900
DGENRE=
TTITLE0=Touch Of Grey
TTITLE1=Throwing Stones
TTITLE2=Franklin's Tower
TTITLE3=Lost Sailor
TTITLE4=Saint Of Circumstance
TTITLE5=He's Gone
TTITLE6=Drums
EXTD=
EXTT0=
EXTT1=
EXTT2=
EXTT3=
EXTT4=
EXTT5=
EXTT6=
PLAYORDER=
